<svg width="23" height="24" viewBox="0 0 23 24" fill="none" xmlns="http://www.w3.org/2000/svg">
<path d="M11.5 0C5.14865 0 0 5.3725 0 12C0 18.6275 5.14865 24 11.5 24C17.8514 24 23 18.6275 23 12C23 5.3725 17.8514 0 11.5 0ZM8.6849 16.9738H6.35615V9.15375H8.6849V16.9738ZM7.50615 8.19375C6.77062 8.19375 6.29505 7.65 6.29505 6.9775C6.29505 6.29125 6.785 5.76375 7.53609 5.76375C8.28719 5.76375 8.74719 6.29125 8.76156 6.9775C8.76156 7.65 8.28719 8.19375 7.50615 8.19375ZM17.1901 16.9738H14.8614V12.64C14.8614 11.6313 14.5235 10.9462 13.6814 10.9462C13.0381 10.9462 12.656 11.41 12.4871 11.8563C12.4248 12.015 12.4092 12.24 12.4092 12.4638V16.9725H10.0793V11.6475C10.0793 10.6713 10.0493 9.855 10.0182 9.1525H12.0415L12.1481 10.2388H12.1948C12.5015 9.72875 13.2526 8.97625 14.5092 8.97625C16.0413 8.97625 17.1901 10.0475 17.1901 12.35V16.9738Z" fill="#5DBCFC"/>
</svg>
