<svg width="22" height="24" viewBox="0 0 22 24" fill="none" xmlns="http://www.w3.org/2000/svg">
<path d="M11 0C4.92545 0 0 5.37321 0 12C0 18.6268 4.92545 24 11 24C17.0746 24 22 18.6268 22 12C22 5.37321 17.0746 0 11 0ZM15.1004 16.9714C14.1036 17.9732 12.7433 18.5625 11.1203 18.5625C8.77054 18.5625 6.7375 17.092 5.74799 14.9491C5.3404 14.0625 5.10714 13.0607 5.10714 12C5.10714 10.9393 5.3404 9.9375 5.74799 9.05089C6.7375 6.90536 8.77054 5.43482 11.1203 5.43482C12.7408 5.43482 14.1011 6.08571 15.1446 7.14375L13.421 9.02679C12.7973 8.37589 12.0042 8.04643 11.1228 8.04643C9.55625 8.04643 8.23036 9.20089 7.75647 10.7518C7.63616 11.1455 7.56741 11.5661 7.56741 12C7.56741 12.4339 7.63616 12.8545 7.75647 13.2482C8.23036 14.7991 9.55625 15.9536 11.1203 15.9536C11.9306 15.9536 12.6181 15.7205 13.1558 15.3268C13.7942 14.8607 14.2165 14.167 14.3565 13.3446H11.1203V10.8054H16.7848C16.856 11.2366 16.8929 11.6839 16.8929 12.1473C16.8929 14.1482 16.2373 15.8277 15.1004 16.9714Z" fill="#5DBCFC"/>
</svg>
